<svg xmlns="http://www.w3.org/2000/svg" width="32" height="32" viewBox="0 0 32 32">
  <path id="notifications_FILL0_wght400_GRAD0_opsz24" d="M160-852.8V-856h4v-11.2a8.245,8.245,0,0,1,2.5-5.9,12.085,12.085,0,0,1,6.5-3.38v-1.12a2.109,2.109,0,0,1,.875-1.7A3.3,3.3,0,0,1,176-880a3.3,3.3,0,0,1,2.125.7,2.109,2.109,0,0,1,.875,1.7v1.12a12.086,12.086,0,0,1,6.5,3.38,8.245,8.245,0,0,1,2.5,5.9V-856h4v3.2ZM176-864.8Zm0,16.8a4.382,4.382,0,0,1-2.825-.94A2.812,2.812,0,0,1,172-851.2h8a2.812,2.812,0,0,1-1.175,2.26A4.382,4.382,0,0,1,176-848Zm-8-8h16v-11.2a5.625,5.625,0,0,0-2.35-4.52A8.763,8.763,0,0,0,176-873.6a8.763,8.763,0,0,0-5.65,1.88A5.625,5.625,0,0,0,168-867.2Z" transform="translate(-160 880)" fill="currentColor"/>
</svg>
