<svg id="Liveロゴ_ラベルなし_" data-name="Liveロゴ（ラベルなし）" xmlns="http://www.w3.org/2000/svg" xmlns:xlink="http://www.w3.org/1999/xlink" width="56" height="32.581" viewBox="0 0 56 32.581">
  <defs>
    <clipPath id="clip-path">
      <rect id="長方形_2093" data-name="長方形 2093" width="56" height="32.581" fill="none"/>
    </clipPath>
  </defs>
  <g id="グループ_3691" data-name="グループ 3691" clip-path="url(#clip-path)">
    <path id="パス_1417" data-name="パス 1417" d="M54.062,15.759h0a10.678,10.678,0,0,0-5.94-4.183,10.685,10.685,0,0,0-18.66-7.961,9.238,9.238,0,0,0-2.035,1.179,9.087,9.087,0,0,0-11.907.7,9.3,9.3,0,0,0-1.743.137,9.035,9.035,0,0,0-7.459,9.29A9.037,9.037,0,0,0,9.031,32.581c.1,0,.2,0,.3,0l15.981-.017a1.3,1.3,0,0,0,.138,0l19.515.021a10.692,10.692,0,0,0,9.1-16.821Zm.1,7.695a8.988,8.988,0,0,1-8.839,7.429c-.11,0-.218,0-.328-.006l-19.6-.021h-.082L9.3,30.874H9.032a7.335,7.335,0,0,1-.811-14.62,7.337,7.337,0,0,1,8-9,7.39,7.39,0,0,1,11.2-.135,7.44,7.44,0,0,1,3.053-2.067,8.986,8.986,0,0,1,15.694,7.9,9.029,9.029,0,0,1,6.5,3.785,8.929,8.929,0,0,1,1.494,6.714Z" transform="translate(0 0)" fill="#1e61ad"/>
    <path id="パス_1418" data-name="パス 1418" d="M19.626,8.555a7.27,7.27,0,0,1,2.76,3.718L24.9,19.209,29,7.917a9.063,9.063,0,0,1,.463-1.13,6.342,6.342,0,0,0-1.546,1.488l-.42.572-.419-.572a6.351,6.351,0,0,0-9.606-.749,7.339,7.339,0,0,1,2.156,1.03Z" transform="translate(-0.071 -0.023)" fill="#e7404b"/>
    <path id="パス_1419" data-name="パス 1419" d="M22.473,25.75l.217-.6.216-.6,1.382-3.811-2.948-8.13a6.3,6.3,0,0,0-4.669-4.195c-.186-.04-.375-.07-.565-.093s-.39-.038-.588-.042c-.05,0-.1-.006-.148-.006A6.3,6.3,0,0,0,9.4,16.6l.227.671-.709.016a6.3,6.3,0,0,0,.361,12.588h.02l13.475-.014a3.252,3.252,0,0,1-.249-.312,3.113,3.113,0,0,1-.38-2.888Z" transform="translate(-0.011 -0.034)" fill="#e7404b"/>
    <path id="パス_1420" data-name="パス 1420" d="M52.673,16.739a9.029,9.029,0,0,0-6.5-3.785,8.985,8.985,0,0,0-15.7-7.9,7.44,7.44,0,0,0-3.058,2.067A7.389,7.389,0,0,0,17,6.462a7.3,7.3,0,0,0-.781.8,7.337,7.337,0,0,0-8,9,7.335,7.335,0,0,0,.811,14.624h.264L25.3,30.87a.461.461,0,0,0,.083,0l19.6.016c.109,0,.217.006.327.006a8.99,8.99,0,0,0,7.35-14.142ZM21.884,5.659a6.386,6.386,0,0,1,5.128,2.6l.419.572.42-.572A6.324,6.324,0,0,1,29.4,6.77a9.063,9.063,0,0,0-.463,1.13L24.84,19.191l-2.515-6.934a7.312,7.312,0,0,0-4.917-4.746,6.339,6.339,0,0,1,4.476-1.852Zm.631,23.859a3.252,3.252,0,0,0,.249.312l-13.475.014H9.274a6.3,6.3,0,1,1-.36-12.585l.709-.016L9.4,16.571a6.3,6.3,0,0,1,5.976-8.324c.05,0,.1,0,.149.006a5.036,5.036,0,0,1,.588.042c.2.023.377.053.564.093a6.3,6.3,0,0,1,4.67,4.195l2.947,8.13-1.382,3.811-.216.6-.217.6-.33.911a3.114,3.114,0,0,0,.369,2.887ZM53.134,23.28a7.948,7.948,0,0,1-8.113,6.563l-19.926-.022a2.113,2.113,0,0,1-2.109-2.115,2.139,2.139,0,0,1,.127-.716l.082-.227.217-.6.217-.6,1.205-3.325.278-.764.277-.763L29.91,8.247l.006-.016a8.029,8.029,0,0,1,2.413-3.585c.187-.157.378-.31.582-.451a7.894,7.894,0,0,1,4.543-1.44,7.983,7.983,0,0,1,1.394.123,7.9,7.9,0,0,1,5.132,3.269A7.986,7.986,0,0,1,45,13.262l-.228.672.708.016a7.985,7.985,0,0,1,6.34,3.386,7.9,7.9,0,0,1,1.322,5.944Z" transform="translate(-0.007 -0.007)" fill="#fff"/>
    <path id="パス_1421" data-name="パス 1421" d="M53.224,23.284a7.948,7.948,0,0,1-8.113,6.563l-19.926-.022a2.113,2.113,0,0,1-2.109-2.115,2.139,2.139,0,0,1,.127-.716L30,8.253l.006-.016A8.029,8.029,0,0,1,32.42,4.651c.187-.157.378-.31.582-.451a7.894,7.894,0,0,1,4.54-1.44,7.984,7.984,0,0,1,1.394.123,7.9,7.9,0,0,1,5.132,3.269,7.987,7.987,0,0,1,1.015,7.115l-.228.672.708.016a7.985,7.985,0,0,1,6.34,3.386,7.9,7.9,0,0,1,1.32,5.943" transform="translate(-0.094 -0.011)" fill="#e7404b"/>
    <path id="パス_1422" data-name="パス 1422" d="M37.046,20.968v4.353l-6.091-5.649H44.967v1.295Z" transform="translate(-0.126 -0.08)" fill="#fff"/>
    <path id="パス_1423" data-name="パス 1423" d="M39.03,16.426V12.075l6.091,5.649H31.109V16.429Z" transform="translate(-0.126 -0.049)" fill="#fff"/>
  </g>
</svg>
