<svg xmlns="http://www.w3.org/2000/svg" xmlns:xlink="http://www.w3.org/1999/xlink" viewBox="0 0 122.911 32.793">
  <defs>
    <clipPath id="clip-path">
      <rect width="122.911" height="32.793" transform="translate(0 0)" fill="none"/>
    </clipPath>
  </defs>
  <g transform="translate(0 0)">
    <g clip-path="url(#clip-path)">
      <path d="M120.966,15.9h0A10.721,10.721,0,0,0,115,11.7,10.729,10.729,0,0,0,96.266,3.7a9.175,9.175,0,0,0-2.043,1.184,9.124,9.124,0,0,0-11.955.707,9.334,9.334,0,0,0-1.75.138,9.071,9.071,0,0,0-7.489,9.327,9.075,9.075,0,0,0,2.722,17.728h.3L92.1,32.77a1.3,1.3,0,0,0,.139-.005l19.594.021A10.736,10.736,0,0,0,120.969,15.9Zm.095,7.726a9.024,9.024,0,0,1-8.875,7.463c-.11,0-.219,0-.329-.006l-19.681-.021c-.027,0-.054,0-.082,0l-16.076.017c-.089,0-.178,0-.266,0A7.365,7.365,0,0,1,74.938,16.4a7.367,7.367,0,0,1,8.032-9.04,7.423,7.423,0,0,1,11.255-.139,7.463,7.463,0,0,1,3.069-2.076,9.024,9.024,0,0,1,15.754,7.929,9.066,9.066,0,0,1,6.522,3.806A8.964,8.964,0,0,1,121.061,23.622Z" fill="#1e61ad"/>
      <path d="M86.319,8.64a7.3,7.3,0,0,1,2.772,3.731l2.526,6.963L95.729,8a9.123,9.123,0,0,1,.466-1.136,6.415,6.415,0,0,0-1.553,1.5l-.421.574L93.8,8.363a6.377,6.377,0,0,0-8.912-1.379,6.449,6.449,0,0,0-.733.627,7.352,7.352,0,0,1,2.164,1.034Z" fill="#E7404B"/>
      <path d="M89.238,25.893l.218-.6.217-.6,1.388-3.827L88.1,12.7a6.322,6.322,0,0,0-4.688-4.212c-.187-.04-.377-.07-.567-.093s-.392-.038-.59-.042c-.05,0-.1-.006-.149-.006a6.321,6.321,0,0,0-6,8.355l.228.674-.712.016a6.322,6.322,0,1,0,.363,12.639H76l13.53-.014a3.264,3.264,0,0,1-.25-.313,3.13,3.13,0,0,1-.382-2.9Z" fill="#E7404B"/>
      <path d="M119.566,16.877a9.066,9.066,0,0,0-6.522-3.806A9.023,9.023,0,0,0,97.29,5.142a7.463,7.463,0,0,0-3.069,2.076,7.419,7.419,0,0,0-11.255.139,7.367,7.367,0,0,0-8.032,9.04,7.368,7.368,0,0,0,.818,14.688c.088,0,.177,0,.266,0l16.076-.017a.446.446,0,0,0,.082,0l19.681.021c.11,0,.219.006.329.006a9.027,9.027,0,0,0,7.38-14.2ZM88.651,5.748A6.414,6.414,0,0,1,93.8,8.358l.421.574.421-.574a6.415,6.415,0,0,1,1.553-1.5,9.123,9.123,0,0,0-.466,1.136L91.617,19.329l-2.526-6.963A7.343,7.343,0,0,0,84.155,7.6,6.356,6.356,0,0,1,88.651,5.748ZM89.288,29.7a3.264,3.264,0,0,0,.25.313l-13.53.014h-.019a6.321,6.321,0,1,1-.36-12.636l.712-.016-.228-.674a6.325,6.325,0,0,1,6-8.358c.05,0,.1.005.149.006a5.025,5.025,0,0,1,.59.042c.2.023.38.053.567.093A6.324,6.324,0,0,1,88.1,12.7l2.96,8.163-1.39,3.831-.217.6-.218.6-.332.916A3.129,3.129,0,0,0,89.288,29.7Zm30.744-6.264a7.978,7.978,0,0,1-8.146,6.59l-20.007-.021a2.123,2.123,0,0,1-1.991-2.843l.083-.228.218-.6.217-.6,1.211-3.34.278-.766.278-.766L96.714,8.347l.006-.016A7.707,7.707,0,0,1,98.5,5.346a7.934,7.934,0,0,1,.644-.613c.187-.158.38-.311.583-.453a7.931,7.931,0,0,1,4.561-1.446,8.016,8.016,0,0,1,1.4.124A7.931,7.931,0,0,1,110.84,6.24a8.016,8.016,0,0,1,1.018,7.144l-.228.674.711.017a8.018,8.018,0,0,1,6.366,3.4A7.937,7.937,0,0,1,120.032,23.44Z" fill="#fff"/>
      <path d="M120.032,23.44a7.978,7.978,0,0,1-8.146,6.59l-20.007-.021a2.123,2.123,0,0,1-1.991-2.843L96.714,8.348l.006-.016A7.719,7.719,0,0,1,98.5,5.347a7.934,7.934,0,0,1,.644-.613c.187-.158.38-.311.583-.453a7.931,7.931,0,0,1,4.561-1.446,8.016,8.016,0,0,1,1.4.124,7.931,7.931,0,0,1,5.153,3.282,8.016,8.016,0,0,1,1.018,7.144l-.228.674.711.017a8.018,8.018,0,0,1,6.366,3.4,7.935,7.935,0,0,1,1.325,5.964" fill="#E7404B"/>
      <path d="M103.756,21.046v4.369L97.64,19.743h14.069v1.3Z" fill="#fff"/>
      <path d="M105.746,16.517V12.148l6.116,5.672H97.793v-1.3Z" fill="#fff"/>
      <path d="M21.939,5.653h2.67a1.1,1.1,0,0,1,.236.032.333.333,0,0,1,.163.09.253.253,0,0,1,.06.181.278.278,0,0,1-.1.253.663.663,0,0,1-.334.063h-3a.544.544,0,0,1-.32-.077.364.364,0,0,1-.107-.311V.484a.4.4,0,0,1,.093-.3A.49.49,0,0,1,21.634.1h2.94a.511.511,0,0,1,.293.068.3.3,0,0,1,.107.248.268.268,0,0,1-.1.239.542.542,0,0,1-.3.068H21.937v2.05h2.544a.509.509,0,0,1,.307.072.3.3,0,0,1,.093.253.264.264,0,0,1-.093.235.564.564,0,0,1-.307.063H21.937Z" fill="#1e61ad"/>
      <path d="M28.742,6.041a.355.355,0,0,1-.074.239.372.372,0,0,1-.288.086.383.383,0,0,1-.288-.09.332.332,0,0,1-.084-.235V.352a.379.379,0,0,1,.084-.258.479.479,0,0,1,.567,0,.372.372,0,0,1,.083.262V2.577L31.222.392c.074-.06.147-.121.218-.181a1.07,1.07,0,0,1,.214-.144.409.409,0,0,1,.2-.05.334.334,0,0,1,.2.1q.222.225-.1.515L29.2,2.98l2.888,2.691a.606.606,0,0,1,.2.325.315.315,0,0,1-.07.262q-.2.252-.557-.036L28.741,3.4Z" fill="#1e61ad"/>
      <path d="M38.888.532c0-.186.034-.305.1-.356A.8.8,0,0,1,39.416.1h1.5A2.4,2.4,0,0,1,42.421.5a1.561,1.561,0,0,1,.52,1.31A1.589,1.589,0,0,1,42.4,3.138a2.326,2.326,0,0,1-1.486.429h-.242L42.718,5.49c.061.066.12.133.176.2a.881.881,0,0,1,.13.2.4.4,0,0,1,.042.189.244.244,0,0,1-.079.163.409.409,0,0,1-.279.122.36.36,0,0,1-.278-.122L39.718,3.569h-.093V6.007a.388.388,0,0,1-.088.257.341.341,0,0,1-.274.1.351.351,0,0,1-.288-.1.4.4,0,0,1-.084-.257Zm.734,2.412h1.3a1.521,1.521,0,0,0,.966-.262,1.025,1.025,0,0,0,.325-.849.981.981,0,0,0-.339-.84A1.559,1.559,0,0,0,40.922.74h-1.3Z" fill="#1e61ad"/>
      <path d="M15.717.532c0-.186.034-.305.1-.356A.8.8,0,0,1,16.245.1h1.5A2.4,2.4,0,0,1,19.25.5a1.561,1.561,0,0,1,.52,1.31,1.589,1.589,0,0,1-.539,1.323,2.326,2.326,0,0,1-1.486.429h-.251L19.537,5.49c.062.066.121.133.177.2a.881.881,0,0,1,.13.2.4.4,0,0,1,.042.189.244.244,0,0,1-.079.163.409.409,0,0,1-.279.122.36.36,0,0,1-.278-.122L16.538,3.569h-.093V6.007a.388.388,0,0,1-.088.257.341.341,0,0,1-.274.1.351.351,0,0,1-.288-.1.4.4,0,0,1-.084-.257Zm.734,2.412h1.3a1.521,1.521,0,0,0,.966-.262,1.025,1.025,0,0,0,.325-.849A.981.981,0,0,0,18.7.993,1.559,1.559,0,0,0,17.751.74h-1.3Z" fill="#1e61ad"/>
      <path d="M14.574,5.851,12.614.316a.436.436,0,0,0-.167-.231.6.6,0,0,0-.615,0,.446.446,0,0,0-.167.231L9.7,5.851a.5.5,0,0,0-.009.366c.043.1.146.149.306.149a.319.319,0,0,0,.256-.086.57.57,0,0,0,.144-.248l.511-1.382h2.454l.51,1.382a.57.57,0,0,0,.144.248.318.318,0,0,0,.256.086c.161,0,.263-.05.306-.149a.5.5,0,0,0-.009-.366M12.14,4.018H11.074l1.058-3.1,1.059,3.1Z" fill="#1e61ad"/>
      <path d="M8.774,5.095a.356.356,0,0,0-.5.007A1.939,1.939,0,0,1,6.85,5.7,2.338,2.338,0,0,1,4.625,3.249l0-.035A2.3,2.3,0,0,1,6.721.725Q6.763.72,6.8.719a1.875,1.875,0,0,1,1.328.5.357.357,0,0,0,.475.009l.018-.016A.351.351,0,0,0,8.662.718L8.633.689a2.7,2.7,0,0,0-1.8-.667,3.193,3.193,0,0,0,.038,6.37,2.706,2.706,0,0,0,1.935-.778.35.35,0,0,0,0-.495L8.8,5.114Z" fill="#1e61ad"/>
      <path d="M46.474.72V5.976a.421.421,0,0,1-.074.271.365.365,0,0,1-.288.09.354.354,0,0,1-.288-.1.42.42,0,0,1-.075-.266V.715H44.254a.436.436,0,0,1-.265-.072.3.3,0,0,1-.1-.253.292.292,0,0,1,.1-.249.422.422,0,0,1,.26-.076h3.725a.39.39,0,0,1,.26.085.308.308,0,0,1,.1.249.262.262,0,0,1-.116.248.482.482,0,0,1-.246.068Z" fill="#1e61ad"/>
      <path d="M50.074,5.653h2.67a1.1,1.1,0,0,1,.236.032.334.334,0,0,1,.163.09.253.253,0,0,1,.06.181.278.278,0,0,1-.1.253.663.663,0,0,1-.334.063h-3a.544.544,0,0,1-.32-.077.364.364,0,0,1-.107-.311V.484a.4.4,0,0,1,.093-.3A.49.49,0,0,1,49.769.1h2.944a.511.511,0,0,1,.293.068.3.3,0,0,1,.107.248.268.268,0,0,1-.1.239.542.542,0,0,1-.3.068H50.074v2.05h2.544a.509.509,0,0,1,.307.072.3.3,0,0,1,.093.253.264.264,0,0,1-.093.235.564.564,0,0,1-.307.063H50.074Z" fill="#1e61ad"/>
      <path d="M37.868,5.851,35.909.316a.44.44,0,0,0-.168-.231.6.6,0,0,0-.615,0,.451.451,0,0,0-.167.231L33,5.851a.5.5,0,0,0-.009.366c.044.1.146.149.307.149a.319.319,0,0,0,.255-.086.57.57,0,0,0,.144-.248l.511-1.382h2.454l.511,1.382a.57.57,0,0,0,.144.248.319.319,0,0,0,.255.086c.161,0,.263-.05.306-.149a.493.493,0,0,0-.009-.366M34.374,4.018l1.059-3.1,1.059,3.1Z" fill="#1e61ad"/>
      <path d="M3.858,11.174H8.649l-3.1,17.451h9.343l-.754,4.146H0Z" fill="#DE651F"/>
      <path d="M20.761,18.095h4.58L22.72,32.771H18.139Zm3.284-7.25a2.464,2.464,0,0,1,2.5,2.428v.048a2.734,2.734,0,0,1-2.752,2.716h-.048a2.464,2.464,0,0,1-2.5-2.428V13.56A2.734,2.734,0,0,1,24,10.844h.048" fill="#DE651F"/>
      <path d="M29.619,18.095H34.29l.964,4.862c.3,1.521.573,2.983.814,4.415h.06c.813-1.522,1.627-3.013,2.471-4.534l2.652-4.743h4.7L37.242,32.771H32.874Z" fill="#DE651F"/>
      <path d="M59.874,31.868a13.276,13.276,0,0,1-4.852.925c-4.039,0-7.655-2.148-7.655-6.653a9.03,9.03,0,0,1,2.592-6.294,8.2,8.2,0,0,1,5.846-2.386c3.526,0,6.54,2.118,6.54,6.145a10.676,10.676,0,0,1-.362,2.714h-10.1c.211,2.029,1.718,2.953,3.737,2.953a11.961,11.961,0,0,0,5-1.342Zm-1.688-8.412A2.416,2.416,0,0,0,55.9,20.917a2.232,2.232,0,0,0-.306,0,3.61,3.61,0,0,0-3.315,2.536Z" fill="#DE651F"/>
    </g>
  </g>
</svg>
